<?xml version="1.0" encoding="UTF-8"?>
<svg width="618px" height="122px" viewBox="0 0 618 122" version="1.1" xmlns="http://www.w3.org/2000/svg" xmlns:xlink="http://www.w3.org/1999/xlink">
    <!-- Generator: Sketch 64 (93537) - https://sketch.com -->
    <title>gerb_tatarstana_b-w_Abali.ru</title>
    <desc>Created with Sketch.</desc>
    <g id="gerb_tatarstana_b-w_Abali.ru" stroke="none" stroke-width="1" fill="none" fill-rule="evenodd">
        <path d="M65.2241387,35.097519 C65.2954831,35.1695518 65.2954831,35.3136174 65.2954831,35.4576831 C73.5000951,40.4999799 80.1462219,48.4213756 83,55.1204271 C83,55.1204271 83,86 83,86 C83,86 56.4596773,86 56.4596773,86 C56.4596773,86 52.6254624,86 52.6254624,86 C52.6254624,86 45.9611367,68.736842 39.2547582,68.4487108 C38.6840026,68.4487108 37.470156,69.2410717 36.3296357,70.0334326 C33.689891,71.8342529 30.051324,74.2833685 26.3414125,73.1308435 C23.6303233,72.2664498 21.3473009,69.3851373 20.6338563,68.5207436 C20.4188321,68.1605795 19.7063785,67.224153 20.1344452,66.2156936 C20.5625119,65.2792671 21.9180565,64.7750374 24.4854658,64.5589389 C27.7683015,64.2708077 29.8372906,63.4784468 29.9086351,62.4699874 C29.9086351,62.3259218 30.1216775,59.2285109 27.3402348,58.43615 C26.1987236,58.0759859 24.9858679,58.796314 23.7730122,59.4446093 C22.3461232,60.2369702 20.9192341,61.101364 19.3496562,60.6691671 C17.423356,60.2369702 15.7110892,58.9403796 14.7122668,57.283625 C14.2128557,56.4192312 13.9274779,55.4828047 13.9274779,54.5463781 C13.9274779,54.2582469 13.9988223,53.9701156 14.0701668,53.6819844 C13.1426889,52.7455578 13,51.8091313 13,51.0167704 C13,50.8727047 13,50.7286391 13,50.5845735 L13,50.008311 C13,47.5591954 14.7122668,46.2626048 16.5672226,44.8939814 L17.2093227,44.3897517 C18.9929339,43.0211283 20.1344452,42.1567345 21.4186453,41.220308 C22.773199,40.2838814 24.1297345,39.8516846 25.4139346,39.4915205 C26.4841014,39.1313564 27.4829237,38.7711924 28.4094107,38.1949299 C29.4092239,37.5466346 30.4080462,36.3941096 31.3355241,35.3136174 C32.5483798,33.944994 33.7612355,32.5043378 35.11678,31.8560425 C39.3261027,29.9111566 44.0348365,29.9831894 50.5985261,30.4153862 C51.383315,29.4789597 52.168104,28.6865988 52.952893,28.1103363 C55.1635801,26.309516 57.376249,25.6612207 59.3729027,26.1654504 C62.441705,26.8857785 64.7247275,30.3433534 65.2241387,35.097519 Z" id="Fill-1" fill="#1A1919"></path>
        <path d="M55.0907447,32.6955431 C55.6805852,31.5590986 56.2704257,30.4857899 58.0399472,30.0438393 C58.7659047,29.8859998 59.8094686,30.1701109 60.2178197,30.6436295 C60.4900538,30.9277406 60.7169155,31.2434196 60.8076602,31.5906665 C61.1252666,32.8218147 61.0792641,33.6110123 60.4446815,34.8421605 L60.3539368,35 L60.0810725,34.9052963 L55.2268617,32.9165184 L55,32.8533826 L55.0907447,32.6955431" id="Fill-26" fill="#FFFFFE" fill-rule="nonzero"></path>
        <path d="M36.3309468,42.6782555 C36.9963383,42.0908135 37.6055753,41.6502319 38.0486568,41.2096504 C38.4363531,40.7690689 38.767895,40.3284874 39.0455902,40.0347664 C39.6548273,39.4473244 40.2640643,39.0556964 41.5933088,39.0067429 C44.0856422,38.8598824 45.3041164,41.1606969 46.6333608,41.1606969 C47.9072202,41.5523249 45.4702719,41.8460459 45.2487312,41.9439529 C44.4179534,42.2866275 43.8087163,42.8740695 43.0333237,43.2656975 C42.5340878,43.510465 41.9248507,43.6573255 41.3156136,43.7552325 C40.3748347,43.902093 39.4332865,44 38.4917383,44 C37.8271161,43.9510465 37.1624938,43.8531395 36.5532568,43.5594185 C35.8886345,43.2656975 35.8332493,43.118837 36.3309468,42.6782555" id="Fill-24" fill="#FFFFFE"></path>
        <path d="M23,65.4215686 C21.9393939,65.1470588 20.5,64.3235294 20.0454545,63.5686275 C19.8939394,64.5980392 19.8939394,65.9705882 20.5757576,67 C20.4242424,66.3137255 21.1060606,65.7647059 23,65.4215686 Z M20.8787879,63.4313725 C19.0606061,62.5392157 18.2272727,61.1666667 18,60 C18.4545455,60.1372549 18.9090909,60.3431373 19.3625842,60.4117647 C20.3801766,60.6421306 21.5459527,60.2835988 21.5161712,60.2835988 C21.5161712,60.2835988 21.5459527,60.373642 21.5161712,60.2835988 C21.0616257,61.0385008 20.7272727,62.4705882 20.8787879,63.4313725 Z" id="Fill-29" fill="#1A1919"></path>
        <path d="M135.579188,86.0461538 C139.380754,86.0461538 142.647724,85.8739316 145.3801,85.5294872 C148.112475,85.1850427 150.422454,84.6617521 152.310037,83.9596154 C154.19762,83.2574786 155.709007,82.3764957 156.844196,81.3166667 C157.979386,80.2568376 158.850578,79.0247863 159.457773,77.6205128 C160.064967,76.2162393 160.467564,74.6331197 160.665562,72.8711538 C160.86356,71.109188 160.962559,69.1683761 160.962559,67.0487179 C160.962559,65.3 160.777761,63.7566239 160.408164,62.4185897 C160.038567,61.0805556 159.556772,59.9147436 158.962777,58.9211538 C158.368782,57.9275641 157.695589,57.0929487 156.943195,56.4173077 C156.190802,55.7416667 155.418609,55.1786325 154.626616,54.7282051 C152.778633,53.6948718 150.666652,53.1119658 148.290674,52.9794872 C150.191456,52.8470085 151.881041,52.2773504 153.359428,51.2705128 C153.993022,50.8465812 154.613416,50.3100427 155.220611,49.6608974 C155.827805,49.0117521 156.369001,48.2102564 156.844196,47.2564103 C157.319392,46.3025641 157.702188,45.1764957 157.992586,43.8782051 C158.282983,42.5799145 158.428182,41.082906 158.428182,39.3871795 C158.428182,37.0555556 158.216984,34.9888889 157.794588,33.1871795 C157.372191,31.3854701 156.533999,29.8818376 155.28001,28.6762821 C154.026022,27.4707265 152.237438,26.5566239 149.914259,25.9339744 C147.59108,25.3113248 144.528707,25 140.727142,25 L90,25 L90,86.0461538 L135.579188,86.0461538 Z M102.421577,50.4358974 L102.421577,31.3589744 L138.192765,31.3589744 C140.727142,31.3589744 142.806123,31.4583333 144.429708,31.6570513 C146.053294,31.8557692 147.340282,32.2399573 148.290674,32.8096154 C149.241065,33.3792735 149.901059,34.1940171 150.270656,35.2538462 C150.640252,36.3136752 150.825051,37.691453 150.825051,39.3871795 C150.825051,40.9769231 150.745851,42.3480769 150.587453,43.500641 C150.429054,44.6532051 150.118857,45.6401709 149.656861,46.4615385 C149.194865,47.282906 148.554671,47.9519231 147.736279,48.4685897 C146.917886,48.9852564 145.848696,49.3893162 144.528707,49.6807692 C143.208719,49.9722222 141.611534,50.1709402 139.737151,50.2769231 C137.862768,50.382906 135.631988,50.4358974 133.044811,50.4358974 L102.421577,50.4358974 Z M133.720114,79.6863564 L102.425741,79.5480769 L102.425741,56.7948718 L133.044811,56.7948718 C136.001585,56.7948718 138.562361,56.8412393 140.727142,56.9339744 C142.891922,57.0267094 144.726706,57.2055556 146.231492,57.4705128 C147.736279,57.7354701 148.950668,58.0997863 149.874659,58.5634615 C150.798651,59.0271368 151.518044,59.6365385 152.03284,60.3916667 C152.547635,61.1467949 152.897432,62.0741453 153.08223,63.1737179 C153.267029,64.2732906 153.359428,65.5649573 153.359428,67.0487179 C153.359428,68.9564103 153.267029,70.5858974 153.08223,71.9371795 C152.897432,73.2884615 152.547635,74.4344017 152.03284,75.375 C151.518044,76.3155983 150.798651,77.0707265 149.874659,77.6403846 C148.950668,78.2100427 147.736279,78.6472222 146.231492,78.9519231 C144.726706,79.2566239 142.891922,79.4553419 140.727142,79.5480769 C138.562361,79.640812 136.001585,79.6871795 133.044811,79.6871795 L133.720114,79.6863564 Z M197.592228,87 C201.182596,87 204.07997,86.7946581 206.28435,86.3839744 C208.48873,85.9732906 209.24981,85.8684137 211.822552,85.1927727 C214.395295,84.5171316 215.420703,83.9385579 216.520857,83.3721693 C216.520857,83.3721693 216.520857,84.2634975 216.520857,86.0461538 L224.123989,86.0461538 L224.123989,64.425641 C224.123989,59.4179487 223.681793,55.2779915 222.797401,52.0057692 C221.913009,48.733547 220.474222,46.1303419 218.48104,44.1961538 C216.487858,42.2619658 213.880881,40.9106838 210.66011,40.1423077 C207.439339,39.3739316 203.505775,38.9897436 198.859417,38.9897436 C194.10746,38.9897436 190.107896,39.2282051 186.860725,39.7051282 C183.613554,40.1820513 180.993378,40.9438034 179.000196,41.9903846 C177.007014,43.0369658 175.581427,44.3948718 174.723435,46.0641026 C173.865443,47.7333333 173.436446,49.7735043 173.436446,52.1846154 L181.039578,52.1846154 C181.039578,50.7538462 181.316775,49.5946581 181.87117,48.7070513 C182.425565,47.8194444 183.375957,47.1239316 184.722344,46.6205128 C186.068732,46.117094 187.890316,45.7792735 190.187095,45.6070513 C192.483874,45.4348291 195.374648,45.3487179 198.859417,45.3487179 C201.103396,45.3487179 203.096578,45.4083333 204.838963,45.5275641 C206.581347,45.6467949 208.105933,45.9183761 209.412721,46.3423077 C210.71951,46.7662393 211.8217,47.3955128 212.719292,48.2301282 C213.616883,49.0647436 214.349477,50.184188 214.917072,51.5884615 C215.484667,52.992735 215.893863,54.741453 216.144661,56.8346154 C216.395458,58.9277778 216.520857,61.4581197 216.520857,64.425641 C216.17766,63.9752137 215.610065,63.4850427 214.818073,62.9551282 C214.02608,62.4252137 212.85789,61.9284188 211.313504,61.4647436 C209.769118,61.0010684 207.782536,60.6168803 205.353758,60.3121795 C202.92498,60.0074786 199.902207,59.8551282 196.28544,59.8551282 C193.751063,59.8551282 191.361884,59.8948718 189.117905,59.974359 C186.873925,60.0538462 184.808144,60.2525641 182.920561,60.5705128 C181.032978,60.8884615 179.349993,61.3521368 177.871606,61.9615385 C176.39322,62.5709402 175.132631,63.4188034 174.08984,64.5051282 C173.04705,65.591453 172.255057,66.9361111 171.713862,68.5391026 C171.172667,70.142094 170.902069,72.0961538 170.902069,74.4012821 C170.902069,76.6004274 171.397065,78.4948718 172.387056,80.0846154 C173.377047,81.674359 174.941233,82.9792735 177.079613,83.999359 C179.217994,85.0194444 181.976769,85.7745726 185.355939,86.2647436 C188.735108,86.7549145 192.813871,87 197.592228,87 Z M198.859417,80.9589744 C194.424257,80.9589744 190.866889,80.8596154 188.187313,80.6608974 C185.507737,80.4621795 183.455156,80.0846154 182.029569,79.5282051 C180.603982,78.9717949 179.66019,78.1967949 179.198194,77.2032051 C178.736199,76.2096154 178.505201,74.9179487 178.505201,73.3282051 C178.505201,71.7384615 178.722999,70.4799145 179.158595,69.5525641 C179.594191,68.6252137 180.445583,67.9230769 181.712772,67.4461538 C182.97996,66.9692308 184.781744,66.6645299 187.118123,66.5320513 C189.454502,66.3995726 192.523474,66.3333333 196.32504,66.3333333 C200.126605,66.3333333 203.320976,66.459188 205.908153,66.7108974 C208.49533,66.9626068 210.574311,67.3666667 212.145097,67.9230769 C213.715883,68.4794872 214.837872,69.2014957 215.511066,70.0891026 C216.18426,70.9767094 216.520857,72.0564103 216.520857,73.3282051 C216.520857,74.6 216.23046,75.7128205 215.649665,76.6666667 C215.06887,77.6205128 214.092079,78.4153846 212.719292,79.0512821 C211.346504,79.6871795 209.53152,80.1641026 207.274341,80.4820513 C205.017161,80.8 202.212186,80.9589744 198.859417,80.9589744 Z M241.864628,86.0461538 L241.864628,57.7089744 C241.864628,55.8542735 242.082426,54.1717949 242.518022,52.6615385 C242.953618,51.1512821 243.778611,49.8529915 244.993,48.7666667 C246.207389,47.6803419 247.883774,46.8391026 250.022155,46.2429487 C252.160535,45.6467949 254.93251,45.3487179 258.33808,45.3487179 C261.822848,45.3487179 264.575023,45.5010684 266.594605,45.8057692 C268.614187,46.1104701 270.138773,46.6403846 271.168364,47.3955128 C272.197954,48.150641 272.851348,49.1574786 273.128546,50.4160256 C273.405743,51.6745726 273.544342,53.2576923 273.544342,55.1653846 L279.880285,55.1653846 C279.880285,52.5423077 279.636087,50.2239316 279.147692,48.2102564 C278.659296,46.1965812 277.722104,44.5074786 276.336117,43.1429487 C274.950129,41.7784188 273.016347,40.7450855 270.534769,40.0429487 C268.053192,39.340812 264.832421,38.9897436 260.872457,38.9897436 C257.414088,38.9897436 254.255687,39.3451354 251.887436,39.8033369 C249.519184,40.2615385 247.725521,40.712702 246.201387,41.2320407 C244.677253,41.7513794 241.864628,42.786338 241.864628,42.786338 C241.864628,42.786338 241.864628,41.9447382 241.864628,40.2615385 L234.261497,40.2615385 L234.261497,86.0461538 L241.864628,86.0461538 Z M525.711943,86.8014207 C529.302311,86.8014207 532.199685,86.5960788 534.404065,86.185395 C536.608445,85.7747113 537.369525,85.6698344 539.942268,84.9941933 C542.51501,84.3185523 543.540418,83.7399786 544.640572,83.17359 C544.640572,83.17359 544.640572,84.0649182 544.640572,85.8475745 L552.243704,85.8475745 L552.243704,64.2270617 C552.243704,59.2193694 551.801508,55.0794121 550.917116,51.8071899 C550.032724,48.5349677 548.593937,45.9317626 546.600755,43.9975745 C544.607573,42.0633865 542.000596,40.7121044 538.779825,39.9437284 C535.559054,39.1753523 531.62549,38.7911643 526.979132,38.7911643 C522.227175,38.7911643 518.227611,39.0296258 514.98044,39.5065489 C511.73327,39.983472 509.113093,40.7452241 507.119911,41.7918053 C505.126729,42.8383865 503.701142,44.1962925 502.84315,45.8655232 C501.985158,47.534754 501.556161,49.5749249 501.556161,51.9860361 L509.159293,51.9860361 C509.159293,50.5552668 509.43649,49.3960788 509.990885,48.508472 C510.54528,47.6208651 511.495672,46.9253523 512.842059,46.4219335 C514.188447,45.9185147 516.010031,45.5806942 518.30681,45.408472 C520.603589,45.2362497 523.494363,45.1501386 526.979132,45.1501386 C529.223112,45.1501386 531.216294,45.209754 532.958678,45.3289848 C534.701062,45.4482155 536.225648,45.7197967 537.532436,46.1437284 C538.839225,46.56766 539.941415,47.1969335 540.839007,48.0315489 C541.736599,48.8661643 542.469192,49.9856087 543.036787,51.3898822 C543.604382,52.7941557 544.013578,54.5428737 544.264376,56.6360361 C544.515173,58.7291985 544.640572,61.2595403 544.640572,64.2270617 C544.297375,63.7766344 543.729781,63.2864634 542.937788,62.7565489 C542.145795,62.2266344 540.977605,61.7298395 539.433219,61.2661643 C537.888833,60.8024891 535.902251,60.418301 533.473473,60.1136002 C531.044695,59.8088993 528.021922,59.6565489 524.405155,59.6565489 C521.870778,59.6565489 519.4816,59.6962925 517.23762,59.7757797 C514.99364,59.8552668 512.927859,60.0539848 511.040276,60.3719335 C509.152693,60.6898822 507.469708,61.1535574 505.991321,61.7629591 C504.512935,62.3723608 503.252346,63.2202241 502.209556,64.3065489 C501.166765,65.3928737 500.374772,66.7375318 499.833577,68.3405232 C499.292382,69.9435147 499.021784,71.8975745 499.021784,74.2027027 C499.021784,76.401848 499.51678,78.2962925 500.506771,79.8860361 C501.496762,81.4757797 503.060948,82.7806942 505.199329,83.8007797 C507.337709,84.8208651 510.096484,85.5759933 513.475654,86.0661643 C516.854823,86.5563352 520.933586,86.8014207 525.711943,86.8014207 Z M526.979132,79.7560443 C522.543972,79.7560443 518.986604,79.6566853 516.307028,79.4579674 C513.627452,79.2592494 511.574871,78.8816853 510.149284,78.3252751 C508.723697,77.7688648 507.779905,76.9938648 507.317909,76.0002751 C506.855914,75.0066853 506.624916,73.7150186 506.624916,72.1252751 C506.624916,70.5355315 506.842714,69.2769845 507.27831,68.349634 C507.713906,67.4222836 508.565298,66.7201469 509.832487,66.2432238 C511.099675,65.7663007 512.901459,65.4615998 515.237838,65.3291212 C517.574217,65.1966426 520.643189,65.1304033 524.444755,65.1304033 C528.24632,65.1304033 531.440692,65.256258 534.027868,65.5079674 C536.615045,65.7596768 538.694026,66.1637366 540.264812,66.7201469 C541.835598,67.2765571 542.957587,67.9985657 543.630781,68.8861725 C544.303975,69.7737793 544.640572,70.8534802 544.640572,72.1252751 C544.640572,73.3970699 544.350175,74.5098904 543.76938,75.4637366 C543.188585,76.4175828 542.211794,77.2124545 540.839007,77.848352 C539.466219,78.4842494 537.651235,78.9611725 535.394056,79.2791212 C533.136876,79.5970699 530.331902,79.7560443 526.979132,79.7560443 Z M569.984343,85.8475745 L569.984343,57.510395 C569.984343,55.6556942 570.202141,53.9732155 570.637737,52.4629591 C571.073334,50.9527027 571.898326,49.6544121 573.112715,48.5680873 C574.327104,47.4817626 576.003489,46.6405232 578.14187,46.0443694 C580.28025,45.4482155 583.052225,45.1501386 586.457795,45.1501386 C589.942563,45.1501386 592.694738,45.3024891 594.71432,45.6071899 C596.733902,45.9118908 598.258488,46.4418053 599.288079,47.1969335 C600.317669,47.9520617 600.971063,48.9588993 601.248261,50.2174463 C601.525458,51.4759933 601.664057,53.059113 601.664057,54.9668053 L608,54.9668053 C608,52.3437284 607.755802,50.0253523 607.267407,48.0116771 C606.779011,45.9980019 605.841819,44.3088993 604.455832,42.9443694 C603.069845,41.5798395 601.136062,40.5465061 598.654484,39.8443694 C596.172907,39.1422326 592.952136,38.7911643 588.992172,38.7911643 C585.533803,38.7911643 582.375402,39.146556 580.007151,39.6047576 C577.638899,40.0629591 575.845236,40.5141227 574.321102,41.0334614 C572.796968,41.5528001 569.984343,42.5877587 569.984343,42.5877587 C569.984343,42.5877587 569.984343,41.7461589 569.984343,40.0629591 L562.381212,40.0629591 L562.381212,85.8475745 L569.984343,85.8475745 Z M310.29281,86.5230769 C314.094376,86.5230769 317.427346,86.4104701 320.29172,86.1852564 C323.156094,85.9600427 325.617872,85.6155983 327.677053,85.1519231 C329.736235,84.6882479 331.445619,84.0788462 332.805207,83.3237179 C334.164795,82.5685897 335.240585,81.667735 336.032578,80.6211538 C336.824571,79.5745726 337.378966,78.3690171 337.695763,77.0044872 C338.01256,75.6399573 338.170958,74.0965812 338.170958,72.374359 C338.170958,70.6521368 338.01256,69.1352564 337.695763,67.8237179 C337.378966,66.5121795 336.831171,65.3728632 336.052378,64.4057692 C335.273585,63.4386752 334.237394,62.5444444 332.943806,61.7230769 C331.650217,60.9017094 330.013432,60.2923077 328.03345,59.8948718 C326.053468,59.4974359 323.710489,59.2192308 321.004514,59.0602564 C318.298538,58.9012821 315.150366,58.8217949 311.559999,58.8217949 L310.319479,58.8213893 C307.891779,58.8197671 305.784108,58.8132784 303.996467,58.8019231 C301.910886,58.7886752 300.161902,58.709188 298.749515,58.5634615 C297.337127,58.417735 296.221737,58.1991453 295.403345,57.9076923 C294.584952,57.6162393 293.964558,57.1923077 293.542162,56.6358974 C293.119765,56.0794872 292.849168,55.3707265 292.730369,54.5096154 C292.61157,53.6485043 292.552171,52.7675214 292.552171,51.8666667 C292.552171,50.3299145 292.895367,49.124359 293.581761,48.25 C294.268155,47.375641 295.403345,46.7264957 296.98733,46.3025641 C298.571316,45.8786325 300.656897,45.6136752 303.244074,45.5076923 C305.831251,45.4017094 309.025622,45.3487179 312.827187,45.3487179 C316.311956,45.3487179 319.19613,45.4480769 321.479709,45.6467949 C323.763289,45.8455128 325.578272,46.2032051 326.92466,46.7198718 C328.271048,47.2365385 329.214839,47.9452991 329.756034,48.8461538 C330.29723,49.7470085 330.567827,50.9128205 330.567827,52.3435897 L338.170958,52.3435897 C338.170958,50.0384615 337.788162,48.0512821 337.022569,46.3820513 C336.256976,44.7128205 334.917188,43.3284188 333.003205,42.2288462 C331.089222,41.1292735 328.502046,40.3145299 325.241675,39.7846154 C321.981305,39.2547009 317.843142,38.9897436 312.827187,38.9897436 C307.758433,38.9897436 303.455272,39.2149573 299.917704,39.6653846 C296.380136,40.115812 293.502562,40.8510684 291.284982,41.8711538 C289.067402,42.8912393 287.457017,44.2160256 286.453826,45.8455128 C285.450635,47.475 284.949039,49.4820513 284.949039,51.8666667 C284.949039,53.6153846 285.107438,55.2382479 285.424235,56.7352564 C285.741032,58.232265 286.282227,59.490812 287.04782,60.5108974 C287.813413,61.5309829 288.849604,62.3457265 290.156392,62.9551282 C291.46318,63.5645299 293.099966,64.0348291 295.066748,64.3660256 C297.03353,64.6972222 299.376509,64.915812 302.095684,65.0217949 C304.81486,65.1277778 307.969631,65.1807692 311.559999,65.1807692 C314.516772,65.1807692 317.037949,65.2271368 319.123531,65.3198718 C321.209112,65.4126068 322.958096,65.5715812 324.370483,65.7967949 C325.78287,66.0220085 326.89826,66.3068376 327.716653,66.6512821 C328.535045,66.9957265 329.15544,67.5057692 329.577836,68.1814103 C330.000232,68.8570513 330.27083,69.5326923 330.389629,70.2083333 C330.508428,70.8839744 330.567827,71.6589744 330.567827,72.5333333 C330.567827,73.4871795 330.508428,74.3549145 330.389629,75.1365385 C330.27083,75.9181624 329.987032,76.6269231 329.538236,77.2628205 C329.08944,77.8987179 328.429446,78.4418803 327.558254,78.8923077 C326.687062,79.342735 325.499073,79.7269231 323.994287,80.0448718 C322.4895,80.3628205 320.621717,80.5946581 318.390937,80.7403846 C316.160157,80.8861111 313.460782,80.9589744 310.29281,80.9589744 C306.808042,80.9589744 303.923868,80.8596154 301.640288,80.6608974 C299.356709,80.4621795 297.541725,80.0846154 296.195338,79.5282051 C294.84895,78.9717949 293.905158,78.1967949 293.363963,77.2032051 C292.822768,76.2096154 292.552171,74.9179487 292.552171,73.3282051 L284.949039,73.3282051 C284.949039,75.7393162 285.378035,77.7794872 286.236028,79.4487179 C287.09402,81.1179487 288.513007,82.4758547 290.492989,83.5224359 C292.472971,84.5690171 295.079948,85.3307692 298.313918,85.8076923 C301.547889,86.2846154 305.540853,86.5230769 310.29281,86.5230769 Z" id="Barsfit" fill="#000000" fill-rule="nonzero"></path>
        <path d="M372.813778,86.0772668 L386.720667,36.0278398 L400.627557,86.0772668 L410.741658,86.0772668 L428.441335,25 L419.591496,25 L405.526574,78.4426085 L390.513455,25 L382.927879,25 L370.093241,70.5418579 L356.985004,25 L345,25 L362.699677,86.0772668 L372.813778,86.0772668 Z M464.714747,87 C469.455732,87 473.439476,86.7549107 476.66598,86.264732 C479.892484,85.7745533 482.493441,84.992917 484.468851,83.919823 C486.444261,82.8467291 487.859972,81.4424334 488.715983,79.7069358 C489.571994,77.9714383 490,75.8716187 490,73.4074772 L490,73.4074772 L482.414424,73.4074772 C482.414424,74.9972459 482.144451,76.288933 481.604506,77.2825385 C481.06456,78.276144 480.122948,79.0511562 478.779669,79.6075753 C477.43639,80.1639944 475.625597,80.5415644 473.34729,80.7402855 C471.068984,80.9390066 468.191469,81.0383672 464.714747,81.0383672 C460.921959,81.0383672 457.734964,80.8992624 455.153761,80.6210529 C452.572558,80.3428433 450.491792,79.6870637 448.911464,78.6537141 C447.331136,77.6203644 446.198567,75.9842274 445.513758,73.745303 C444.828949,71.5063787 444.486545,68.6381709 444.486545,65.1406797 L444.486545,65.1406797 L489.367869,65.1406797 L490,62.5970497 C490,60.2388927 489.874891,57.9999683 489.624672,55.8802767 C489.374453,53.760585 488.913524,51.9124788 488.241885,50.3359582 C487.570245,48.7594375 486.648387,47.2557812 485.47631,45.8249893 C484.304233,44.3941974 482.776583,43.1753747 480.893358,42.1685212 C479.010134,41.1616676 476.744996,40.3932794 474.097946,39.8633565 C471.450896,39.3334336 468.323163,39.0684721 464.714747,39.0684721 C459.657696,39.0684721 455.364471,39.4526662 451.835071,40.2210545 C448.305671,40.9894427 445.434742,42.3407461 443.222282,44.2749648 C441.009822,46.2091834 439.403155,48.8124298 438.402281,52.0847038 C437.401406,55.3569778 436.900969,59.4970006 436.900969,64.5047722 C436.900969,68.8766362 437.401406,72.5066082 438.402281,75.3946881 C439.403155,78.282768 441.009822,80.5879327 443.222282,82.3101822 C445.434742,84.0324317 448.305671,85.2446303 451.835071,85.9467782 C455.364471,86.6489261 459.657696,87 464.714747,87 Z M482.414424,60.0534196 L444.486545,60.0534196 C444.486545,57.7217588 444.637993,55.7279238 444.940889,54.0719147 C445.243785,52.4159056 445.717884,51.1308425 446.363185,50.2167255 C447.008485,49.3026085 447.857912,48.5077241 448.911464,47.8320724 C449.965016,47.1564206 451.235863,46.6397458 452.724006,46.2820478 C454.212148,45.9243499 455.95051,45.6925086 457.939089,45.586524 C459.927669,45.4805394 462.186222,45.4275471 464.714747,45.4275471 C467.875404,45.4275471 470.575131,45.6395163 472.81393,46.0634546 C475.052728,46.487393 476.883275,47.2690293 478.305571,48.4083635 C479.727866,49.5476978 480.768249,50.9983618 481.426719,52.7603555 C482.085189,54.5223492 482.414424,56.9533706 482.414424,60.0534196 L482.414424,60.0534196 Z" id="Barswear" fill="#000000" fill-rule="nonzero"></path>
        <text id="TM" font-family="LucidaGrande-Bold, Lucida Grande" font-size="5" font-weight="bold" fill="#000000">
            <tspan x="600.6" y="85.5">TM</tspan>
        </text>
    </g>
</svg>